<mxfile host="app.diagrams.net" modified="2020-08-13T15:43:07.860Z" agent="5.0 (Windows NT 6.1; Win64; x64) AppleWebKit/537.36 (KHTML, like Gecko) Chrome/84.0.4147.89 Safari/537.36" etag="eFM5txNAU6Du0m06sURl" version="13.6.2" type="github">
  <diagram id="rulF7kQ9bcMJsR-yiyL-" name="Page-1">
    <mxGraphModel dx="1422" dy="762" grid="0" gridSize="10" guides="1" tooltips="1" connect="1" arrows="1" fold="1" page="1" pageScale="1" pageWidth="827" pageHeight="1169" math="0" shadow="0">
      <root>
        <mxCell id="0" />
        <mxCell id="1" parent="0" />
        <mxCell id="wLsjmQTlaBStqsuDJIXA-14" value="" style="rounded=0;whiteSpace=wrap;html=1;dashed=1;" vertex="1" parent="1">
          <mxGeometry x="35" y="283" width="491" height="203" as="geometry" />
        </mxCell>
        <mxCell id="wLsjmQTlaBStqsuDJIXA-4" value="&lt;b&gt;&lt;font style=&quot;font-size: 15px&quot;&gt;⑤调整模型流量&lt;/font&gt;&lt;/b&gt;" style="edgeStyle=orthogonalEdgeStyle;rounded=0;orthogonalLoop=1;jettySize=auto;html=1;" edge="1" parent="1" source="wLsjmQTlaBStqsuDJIXA-1" target="wLsjmQTlaBStqsuDJIXA-3">
          <mxGeometry relative="1" as="geometry" />
        </mxCell>
        <mxCell id="wLsjmQTlaBStqsuDJIXA-1" value="EulerRankBroker" style="rounded=1;whiteSpace=wrap;html=1;fillColor=#f5f5f5;strokeColor=#666666;fontColor=#333333;" vertex="1" parent="1">
          <mxGeometry x="181.5" y="157" width="120" height="60" as="geometry" />
        </mxCell>
        <mxCell id="wLsjmQTlaBStqsuDJIXA-16" value="&lt;b style=&quot;font-size: 13px&quot;&gt;④获取模型&lt;br&gt;路由信息&lt;/b&gt;" style="edgeStyle=none;rounded=0;orthogonalLoop=1;jettySize=auto;html=1;" edge="1" parent="1" source="wLsjmQTlaBStqsuDJIXA-3" target="wLsjmQTlaBStqsuDJIXA-9">
          <mxGeometry relative="1" as="geometry" />
        </mxCell>
        <mxCell id="wLsjmQTlaBStqsuDJIXA-17" value="&lt;b&gt;&lt;font style=&quot;font-size: 14px&quot;&gt;⑥调用新模型&lt;/font&gt;&lt;/b&gt;" style="edgeStyle=none;rounded=0;orthogonalLoop=1;jettySize=auto;html=1;exitX=0.5;exitY=1;exitDx=0;exitDy=0;entryX=0.5;entryY=0;entryDx=0;entryDy=0;" edge="1" parent="1" source="wLsjmQTlaBStqsuDJIXA-3" target="wLsjmQTlaBStqsuDJIXA-7">
          <mxGeometry relative="1" as="geometry" />
        </mxCell>
        <mxCell id="wLsjmQTlaBStqsuDJIXA-19" style="edgeStyle=none;rounded=0;orthogonalLoop=1;jettySize=auto;html=1;exitX=0.5;exitY=1;exitDx=0;exitDy=0;entryX=0.5;entryY=0;entryDx=0;entryDy=0;" edge="1" parent="1" source="wLsjmQTlaBStqsuDJIXA-3" target="wLsjmQTlaBStqsuDJIXA-5">
          <mxGeometry relative="1" as="geometry" />
        </mxCell>
        <mxCell id="wLsjmQTlaBStqsuDJIXA-20" style="edgeStyle=none;rounded=0;orthogonalLoop=1;jettySize=auto;html=1;exitX=0.5;exitY=1;exitDx=0;exitDy=0;entryX=0.5;entryY=0;entryDx=0;entryDy=0;" edge="1" parent="1" source="wLsjmQTlaBStqsuDJIXA-3" target="wLsjmQTlaBStqsuDJIXA-6">
          <mxGeometry relative="1" as="geometry" />
        </mxCell>
        <mxCell id="wLsjmQTlaBStqsuDJIXA-3" value="RankProxy" style="rounded=1;whiteSpace=wrap;html=1;fillColor=#dae8fc;strokeColor=#6c8ebf;" vertex="1" parent="1">
          <mxGeometry x="184" y="306" width="115" height="53" as="geometry" />
        </mxCell>
        <mxCell id="wLsjmQTlaBStqsuDJIXA-5" value="ModelSvr-1" style="rounded=1;whiteSpace=wrap;html=1;fillColor=#dae8fc;strokeColor=#6c8ebf;" vertex="1" parent="1">
          <mxGeometry x="62" y="403" width="108" height="50" as="geometry" />
        </mxCell>
        <mxCell id="wLsjmQTlaBStqsuDJIXA-6" value="ModelSvr-2" style="rounded=1;whiteSpace=wrap;html=1;fillColor=#dae8fc;strokeColor=#6c8ebf;" vertex="1" parent="1">
          <mxGeometry x="214" y="405.5" width="99" height="44.5" as="geometry" />
        </mxCell>
        <mxCell id="wLsjmQTlaBStqsuDJIXA-7" value="ModelSvr-3" style="rounded=1;whiteSpace=wrap;html=1;dashed=1;fillColor=#dae8fc;strokeColor=#6c8ebf;" vertex="1" parent="1">
          <mxGeometry x="365" y="407" width="88" height="43" as="geometry" />
        </mxCell>
        <mxCell id="wLsjmQTlaBStqsuDJIXA-12" value="&lt;b&gt;&lt;font style=&quot;font-size: 15px&quot;&gt;②生成新模块&lt;/font&gt;&lt;/b&gt;" style="edgeStyle=none;rounded=0;orthogonalLoop=1;jettySize=auto;html=1;exitX=0.5;exitY=1;exitDx=0;exitDy=0;entryX=0.975;entryY=0.017;entryDx=0;entryDy=0;entryPerimeter=0;" edge="1" parent="1" source="wLsjmQTlaBStqsuDJIXA-8" target="wLsjmQTlaBStqsuDJIXA-7">
          <mxGeometry relative="1" as="geometry" />
        </mxCell>
        <mxCell id="wLsjmQTlaBStqsuDJIXA-8" value="运营系统" style="rounded=1;whiteSpace=wrap;html=1;fillColor=#d5e8d4;strokeColor=#82b366;" vertex="1" parent="1">
          <mxGeometry x="637" y="283" width="120" height="60" as="geometry" />
        </mxCell>
        <mxCell id="wLsjmQTlaBStqsuDJIXA-9" value="Model配置中心" style="rounded=1;whiteSpace=wrap;html=1;fillColor=#dae8fc;strokeColor=#6c8ebf;" vertex="1" parent="1">
          <mxGeometry x="393" y="303" width="98" height="54" as="geometry" />
        </mxCell>
        <mxCell id="wLsjmQTlaBStqsuDJIXA-11" value="&lt;b&gt;&lt;font style=&quot;font-size: 15px&quot;&gt;①CreateModelService&lt;/font&gt;&lt;/b&gt;" style="rounded=0;orthogonalLoop=1;jettySize=auto;html=1;exitX=0.75;exitY=1;exitDx=0;exitDy=0;entryX=0.5;entryY=0;entryDx=0;entryDy=0;" edge="1" parent="1" source="wLsjmQTlaBStqsuDJIXA-10" target="wLsjmQTlaBStqsuDJIXA-8">
          <mxGeometry relative="1" as="geometry">
            <mxPoint x="651" y="236" as="sourcePoint" />
            <mxPoint x="688.2857142857142" y="290" as="targetPoint" />
          </mxGeometry>
        </mxCell>
        <mxCell id="wLsjmQTlaBStqsuDJIXA-13" value="&lt;b style=&quot;font-size: 14px&quot;&gt;③记录&lt;br&gt;modelid -&amp;gt; 模块路由映射&lt;/b&gt;" style="edgeStyle=none;rounded=0;orthogonalLoop=1;jettySize=auto;html=1;exitX=0.25;exitY=1;exitDx=0;exitDy=0;" edge="1" parent="1" source="wLsjmQTlaBStqsuDJIXA-10">
          <mxGeometry x="0.0814" y="-13" relative="1" as="geometry">
            <mxPoint x="446" y="301" as="targetPoint" />
            <mxPoint as="offset" />
          </mxGeometry>
        </mxCell>
        <mxCell id="wLsjmQTlaBStqsuDJIXA-10" value="Euler模型管理Web" style="rounded=1;whiteSpace=wrap;html=1;fillColor=#f5f5f5;strokeColor=#666666;fontColor=#333333;" vertex="1" parent="1">
          <mxGeometry x="511" y="161" width="120" height="60" as="geometry" />
        </mxCell>
        <mxCell id="wLsjmQTlaBStqsuDJIXA-15" value="&lt;b&gt;Euler在线推理服务&lt;/b&gt;" style="text;html=1;strokeColor=none;fillColor=none;align=center;verticalAlign=middle;whiteSpace=wrap;rounded=0;dashed=1;" vertex="1" parent="1">
          <mxGeometry x="43" y="292" width="107" height="20" as="geometry" />
        </mxCell>
      </root>
    </mxGraphModel>
  </diagram>
</mxfile>
